#!OML:ASF H:\Terrain\Patient Classification 1\Animal2\Wednesday\Animal2.ASF
:FULLY-SPECIFIED
:DEGREES
176
root 17.2445 18.1577 7.60563 6.46896 -4.88281 -0.081654
lowerback 0.68044 -4.06167 -0.369488
upperback 0.890298 -5.41193 -1.15732
thorax 0.45415 -2.70436 -0.96015
lowerneck -10.323 -7.31363 6.60727
upperneck 25.1636 -11.0429 -2.85922
head 9.05531 -4.90479 -3.21701
rclavicle -2.5345e-014 -1.51076e-014
rhumerus -26.605 34.5818 -38.9248
rradius 134.115
rwrist -9.02483
rhand -12.1869 22.4242
rfingers 7.12502
rthumb 13.8769 -7.09284
lclavicle -2.5345e-014 -1.51076e-014
lhumerus -39.6167 -42.206 32.8664
lradius 138.112
lwrist 41.675
lhand -21.5079 9.08023
lfingers 7.12502
lthumb 4.8839 39.0039
rfemur -12.3496 0.830984 18.4767
rtibia 21.7459
rfoot -15.8858 9.852
rtoes 30.6037
lfemur -8.30141 -1.83613 -20.9458
ltibia 16.1556
lfoot -13.6715 7.01996
ltoes -27.7413
177
root 17.2491 18.1635 7.60495 6.65227 -4.88079 -0.278945
lowerback 0.637185 -4.05014 -0.111349
upperback 0.849201 -5.39628 -1.07394
thorax 0.42067 -2.69558 -1.01866
lowerneck -10.219 -7.08257 6.77172
upperneck 24.6692 -10.6904 -2.95981
head 8.86556 -4.75407 -3.21691
rclavicle 1.16289e-014 7.95139e-016
rhumerus -27.1383 32.931 -39.8338
rradius 134.706
rwrist -8.55732
rhand -12.8949 22.168
rfingers 7.12502
rthumb 13.1946 -7.39445
lclavicle 1.16289e-014 7.95139e-016
lhumerus -40.6794 -41.7262 34.997
lradius 138.514
lwrist 41.6856
lhand -24.3226 9.6739
lfingers 7.12502
lthumb 2.16584 39.6427
rfemur -12.4241 0.852714 18.7047
rtibia 21.5688
rfoot -15.8192 9.61972
rtoes 30.4288
lfemur -8.6391 -1.88664 -20.7251
ltibia 16.4137
lfoot -13.8121 6.93203
ltoes -26.9182
178
root 17.2523 18.1685 7.60766 6.87287 -4.87837 -0.448196
lowerback 0.449556 -4.01028 0.233985
upperback 0.843952 -5.34196 -1.09893
thorax 0.487179 -2.6665 -1.24838
lowerneck -10.2427 -6.86624 7.07062
upperneck 24.2462 -10.4055 -3.04127
head 8.71741 -4.61698 -3.24824
rclavicle -7.73272e-014 -4.77083e-015
rhumerus -28.0583 31.2289 -41.4067
rradius 135.285
rwrist -7.39787
rhand -13.634 22.266
rfingers 7.12502
rthumb 12.482 -7.34124
lclavicle -7.73272e-014 -4.77083e-015
lhumerus -41.8479 -41.1844 37.322
lradius 139.072
lwrist 41.6113
lhand -26.0292 9.58682
lfingers 7.12502
lthumb 0.517534 39.5659
rfemur -12.5234 0.932621 18.9116
rtibia 21.3813
rfoot -15.4803 9.46798
rtoes 31.5886
lfemur -9.03679 -1.98335 -20.5318
ltibia 16.7348
lfoot -13.8971 6.97659
ltoes -26.6198
179
root 17.2533 18.1705 7.61004 6.94953 -4.86955 -0.519124
lowerback 0.592451 -3.93559 0.434317
upperback 0.686859 -5.24365 -1.07233
thorax 0.233275 -2.61831 -1.31344
lowerneck -10.1638 -6.80236 6.90924
upperneck 24.0252 -10.2757 -3.00177
head 8.64464 -4.57329 -3.18538
rclavicle 1.87852e-014 -1.03368e-014
rhumerus -29.5915 29.8653 -43.3617
rradius 135.986
rwrist -5.78862
rhand -14.3718 22.6525
rfingers 7.12502
rthumb 11.7706 -6.99673
lclavicle 1.87852e-014 -1.03368e-014
lhumerus -43.4328 -40.6979 40.43
lradius 139.556
lwrist 40.9199
lhand -26.3077 8.87429
lfingers 7.12502
lthumb 0.248565 38.8539
rfemur -12.4933 1.00618 19.0158
rtibia 21.2103
rfoot -14.9971 9.41917
rtoes 32.7784
lfemur -9.29214 -2.08437 -20.4396
ltibia 17.0667
lfoot -14.0623 7.00034
ltoes -26.2077
180
root 17.2556 18.164 7.61232 7.05588 -4.80083 -0.677982
lowerback 0.762729 -3.90893 0.724456
upperback 0.481095 -5.20793 -0.996539
thorax -0.0903801 -2.60249 -1.37374
lowerneck -10.0592 -6.7492 6.63008
upperneck 23.8998 -10.1485 -2.93628
head 8.60754 -4.5349 -3.09897
rclavicle -1.13009e-013 1.74931e-014
rhumerus -31.1235 28.598 -45.6388
rradius 136.624
rwrist -3.92862
rhand -14.4729 23.2858
rfingers 7.12502
rthumb 11.6731 -6.36906
lclavicle -1.13009e-013 1.74931e-014
lhumerus -45.4564 -40.1269 44.1656
lradius 139.955
lwrist 39.5872
lhand -26.5032 8.16469
lfingers 7.12502
lthumb 0.0597826 38.1444
rfemur -12.5063 0.756573 19.2262
rtibia 21.0728
rfoot -14.5981 9.64851
rtoes 33.1906
lfemur -9.51611 -2.04785 -20.2592
ltibia 17.3162
lfoot -14.3344 6.90805
ltoes -26.0408
